:SAMPLES-PER-SECOND 30
:FULLY-SPECIFIED
:DEGREES
430
root  -40.7498 37.3956 -28.2084 47.038 -87.4952 -8.45529
RightUpLeg  -73.4861 -15.6116 20.399
RightLeg  34.0393 5.28823 3.57849
RightFoot  1.3528 1.17852 -10.4668
RightToes  0.000482159 0.542163 -0.142577
Spine  74.1734 -6.04141 7.40538
Spine1  0.0820272 0.735321 -8.38984
HEad  -45.9734 1.32296 -7.11724
LeftShoulder1  6.94942 -28.1349 -14.9189
LeftArm  -87.7833 -64.6495 30.5918
LeftForeArm  0.581776 -19.6263 -3.26973
LeftHand  -0.25398 0.0180481 5.50724
RightShoulder  4.27028 17.2035 13.6668
RightArm  -72.7033 47.2035 -28.5655
RightForeArm  -19.3111 5.80778 0.39463
RightHand  2.26 12.5389 13.9112
LeftUpLeg  -68.8819 10.6224 -4.25648
LeftLeg  39.8009 1.63855 1.84529
LeftFoot  -5.56953 0.0442971 -0.212816
LeftToes  1.06245e-005 4.65856e-005 -8.18503e-006
431
root  -41.2305 37.4363 -28.4643 46.8259 -87.3943 -7.14775
RightUpLeg  -73.9863 -15.2154 20.8313
RightLeg  34.5943 4.81973 3.31009
RightFoot  0.0822519 1.05148 -10.4627
RightToes  0.000482159 0.542163 -0.142577
Spine  74.6037 -5.69735 6.95241
Spine1  0.332318 0.72026 -8.17339
HEad  -46.0846 1.08341 -6.90206
LeftShoulder1  6.90482 -27.9231 -14.9309
LeftArm  -91.8181 -63.9658 32.328
LeftForeArm  5.51692 -21.4297 -3.89676
LeftHand  -0.25398 0.0180481 5.50724
RightShoulder  4.05743 16.6688 13.1084
RightArm  -75.296 47.8671 -28.9351
RightForeArm  -17.3194 7.76263 0.318164
RightHand  1.86283 11.69 11.9951
LeftUpLeg  -69.0497 10.131 -3.1866
LeftLeg  39.7221 2.25937 2.3925
LeftFoot  -5.91315 0.0946072 -1.24868
LeftToes  1.06245e-005 4.65856e-005 -8.18503e-006
432
root  -41.6674 37.4769 -28.6657 46.3353 -87.3947 -5.86264
RightUpLeg  -74.1414 -15.0487 21.2838
RightLeg  34.8024 4.72815 3.26817
RightFoot  -0.523388 0.974854 -10.2954
RightToes  0.000482159 0.542163 -0.142577
Spine  74.7761 -5.33861 6.39575
Spine1  0.93985 0.669568 -7.88185
HEad  -46.0932 1.00639 -6.56274
LeftShoulder1  6.76449 -27.3831 -14.8666
LeftArm  -94.3981 -63.377 33.4325
LeftForeArm  8.36946 -23.1242 -4.4652
LeftHand  -0.25398 0.0180481 5.50724
RightShoulder  3.76343 16.0994 12.1108
RightArm  -76.7337 48.6823 -29.0493
RightForeArm  -15.6001 9.23162 0.477468
RightHand  1.43815 10.8904 9.64807
LeftUpLeg  -68.7589 9.70344 -2.31184
LeftLeg  39.3329 2.91179 2.93506
LeftFoot  -6.6118 0.118534 -1.90888
LeftToes  1.06245e-005 4.65856e-005 -8.18503e-006
433
root  -42.0558 37.5194 -28.8162 44.2388 -87.3887 -3.18961
RightUpLeg  -74.2502 -15.0706 21.7059
RightLeg  34.9901 4.7341 3.29549
RightFoot  -0.824431 0.987641 -10.751
RightToes  0.000482159 0.542163 -0.142577
Spine  74.8665 -5.23602 6.1348
Spine1  1.17571 0.592204 -8.05402
HEad  -45.7268 0.868187 -5.80436
LeftShoulder1  6.62487 -27.2064 -14.5134
LeftArm  -94.5808 -62.8816 32.6406
LeftForeArm  8.97617 -24.4408 -4.76675
LeftHand  -0.25398 0.0180481 5.50724
RightShoulder  3.69341 15.9509 11.8739
RightArm  -76.7635 49.13 -29.456
RightForeArm  -14.4898 9.62664 0.709591
RightHand  1.02462 10.3349 6.99516
LeftUpLeg  -68.2495 9.1942 -1.52971
LeftLeg  38.8301 3.51623 3.40774
LeftFoot  -7.27895 0.131692 -2.4797
LeftToes  1.06245e-005 4.65856e-005 -8.18503e-006
434
root  -42.3921 37.5662 -28.9224 39.8278 -87.3695 1.61377
RightUpLeg  -74.3457 -15.0839 21.7954
RightLeg  35.3487 4.39906 3.08535
RightFoot  -1.27686 1.00767 -11.4888
RightToes  0.000482159 0.542163 -0.142577
Spine  74.7859 -5.18254 5.99221
Spine1  1.49868 0.492638 -8.14458
HEad  -45.3555 0.584672 -5.0099
LeftShoulder1  6.49499 -27.0154 -14.2013
LeftArm  -94.0455 -62.7673 31.7727
LeftForeArm  10.105 -25.5765 -4.95061
LeftHand  -0.25398 0.0180481 5.50724
RightShoulder  3.68412 15.961 11.8098
RightArm  -76.5 49.3521 -29.7934
RightForeArm  -14.6444 9.64872 0.891872
RightHand  0.546591 9.54768 3.70469
LeftUpLeg  -67.8073 8.60842 -0.87353
LeftLeg  38.5595 4.00187 3.79034
LeftFoot  -7.49503 0.15195 -3.17862
LeftToes  1.06245e-005 4.65856e-005 -8.18503e-006
435
root  -42.6725 37.618 -28.9962 35.2112 -87.3613 6.37589
RightUpLeg  -74.1841 -15.0005 21.4791
RightLeg  35.6904 3.77192 2.6435
RightFoot  -1.71147 0.966807 -11.5605
RightToes  0.000482159 0.542163 -0.142577
Spine  74.5786 -5.05024 5.81696
Spine1  2.04801 0.446949 -8.0395
HEad  -44.912 0.172243 -4.25179
LeftShoulder1  6.35894 -26.8163 -13.8688
LeftArm  -92.8272 -63.0665 31.7073
LeftForeArm  12.758 -26.4371 -5.00033
LeftHand  -0.25398 0.0180481 5.50724
RightShoulder  3.696 16.0226 11.8104
RightArm  -76.2568 49.414 -29.6366
RightForeArm  -16.2761 10.3207 1.21424
RightHand  0.038382 8.43507 -0.169453
LeftUpLeg  -67.4291 8.16533 -0.425981
LeftLeg  38.5832 4.32103 4.06393
LeftFoot  -7.36322 0.178465 -3.86548
LeftToes  1.06245e-005 4.65856e-005 -8.18503e-006
436
root  -42.9004 37.6677 -29.0382 34.412 -87.391 7.09506
RightUpLeg  -73.7242 -14.7467 20.9641
RightLeg  35.8975 3.14138 2.17503
RightFoot  -1.83372 0.924152 -11.2139
RightToes  0.000482159 0.542163 -0.142577
Spine  74.269 -4.91771 5.64477
Spine1  2.84137 0.443698 -8.00959
HEad  -44.478 -0.152964 -3.48821
LeftShoulder1  6.09049 -26.6517 -13.0242
LeftArm  -91.6999 -63.5063 31.7304
LeftForeArm  15.3525 -26.8213 -4.94618
LeftHand  -0.25398 0.0180481 5.50724
RightShoulder  3.70905 16.108 11.7926
RightArm  -76.213 49.5374 -28.7794
RightForeArm  -18.0973 11.7107 1.67429
RightHand  -0.412401 7.77848 -4.07962
LeftUpLeg  -66.9866 8.01923 -0.0962757
LeftLeg  38.7008 4.49419 4.22709
LeftFoot  -7.32775 0.194547 -4.29892
LeftToes  1.06245e-005 4.65856e-005 -8.18503e-006
437
root  -43.0855 37.6989 -29.0373 38.5133 -87.4733 2.83501
RightUpLeg  -73.2146 -14.3078 20.4385
RightLeg  36.1201 2.58215 1.75515
RightFoot  -1.86047 0.911238 -11.0932
RightToes  0.000482159 0.542163 -0.142577
Spine  73.8347 -4.86304 5.51292
Spine1  3.69641 0.400879 -8.16714
HEad  -44.1456 -0.257457 -2.83611
LeftShoulder1  5.68147 -26.3878 -11.7245
LeftArm  -91.4977 -63.9386 30.3692
LeftForeArm  16.9538 -27.2217 -4.94936
LeftHand  -0.25398 0.0180481 5.50724
RightShoulder  3.62588 15.9895 11.447
RightArm  -76.5252 50.1092 -26.9379
RightForeArm  -18.7251 13.3305 2.13312
RightHand  -0.826763 7.896 -7.66603
LeftUpLeg  -66.5221 8.07128 0.245801
LeftLeg  38.8389 4.5988 4.33579
LeftFoot  -7.62617 0.191391 -4.49057
LeftToes  1.06245e-005 4.65856e-005 -8.18503e-006
438
root  -43.2298 37.7071 -28.9911 44.4198 -87.595 -3.25717
RightUpLeg  -72.8013 -13.8856 19.9777
RightLeg  36.4413 2.12349 1.41354
RightFoot  -2.002 0.891789 -11.0363
RightToes  0.000482159 0.542163 -0.142577
Spine  73.3353 -4.81272 5.35534
Spine1  4.34293 0.303433 -8.27251
HEad  -43.7142 -0.247266 -2.41577
LeftShoulder1  5.37802 -25.9786 -10.892
LeftArm  -91.3924 -64.4763 27.51
LeftForeArm  18.6076 -28.4419 -5.13785
LeftHand  -0.25398 0.0180481 5.50724
RightShoulder  3.4036 15.4345 10.7541
RightArm  -77.0653 51.1871 -24.0516
RightForeArm  -18.6997 15.3324 2.78465
RightHand  -1.26285 8.07346 -11.3177
LeftUpLeg  -66.1067 8.14264 0.554834
LeftLeg  39.0653 4.70257 4.45774
LeftFoot  -8.12131 0.178508 -4.61791
LeftToes  1.06245e-005 4.65856e-005 -8.18503e-006
439
root  -43.323 37.7086 -28.9114 50.084 -87.7503 -9.23903
RightUpLeg  -72.3853 -13.6719 19.6056
RightLeg  36.7516 1.88156 1.23716
RightFoot  -2.06768 0.856537 -10.69
RightToes  0.000482159 0.542163 -0.142577
Spine  72.895 -4.6935 5.16056
Spine1  4.79585 0.228179 -8.15978
HEad  -43.0523 -0.211564 -2.15923
LeftShoulder1  5.3494 -25.5988 -11.0519
LeftArm  -90.3562 -65.1593 24.7484
LeftForeArm  20.6046 -30.2066 -5.43852
LeftHand  -0.25398 0.0180481 5.50724
RightShoulder  3.18778 14.7135 10.2368
RightArm  -77.331 52.2706 -21.0654
RightForeArm  -19.5808 18.0763 3.95605
RightHand  -1.79454 8.12586 -15.7434
LeftUpLeg  -65.6795 8.21439 0.735343
LeftLeg  39.3852 4.80531 4.59473
LeftFoot  -8.5861 0.165067 -4.72169
LeftToes  1.06245e-005 4.65856e-005 -8.18503e-006
440
root  -43.36 37.7039 -28.8047 58.0803 -87.902 -17.7299
RightUpLeg  -71.9098 -13.5192 19.255
RightLeg  37.0582 1.78105 1.17077
RightFoot  -1.96149 0.829445 -10.244
RightToes  0.000482159 0.542163 -0.142577
Spine  72.5329 -4.51501 5.05986
Spine1  5.3299 0.281649 -7.91471
HEad  -42.3847 -0.180552 -2.01987
LeftShoulder1  5.42012 -25.3962 -11.466
LeftArm  -89.4833 -65.8705 23.2175
LeftForeArm  21.9358 -31.301 -5.62569
LeftHand  -0.25398 0.0180481 5.50724
RightShoulder  3.10202 14.2956 10.1596
RightArm  -76.7046 52.9595 -19.3546
RightForeArm  -21.7755 20.8212 5.20111
RightHand  -2.53992 8.91351 -20.8017
LeftUpLeg  -65.2582 8.38118 0.84441
LeftLeg  39.853 4.85992 4.71487
LeftFoot  -8.99093 0.15116 -4.73932
LeftToes  1.06245e-005 4.65856e-005 -8.18503e-006
